<?xml version="1.0" encoding="UTF-8"?>
<svg id="Layer_2" data-name="Layer 2" xmlns="http://www.w3.org/2000/svg" xmlns:xlink="http://www.w3.org/1999/xlink" viewBox="0 0 633 125">
  <defs>
    <style>
      .cls-1 {
        fill: url(#linear-gradient);
        filter: url(#drop-shadow-1);
      }
    </style>
    <linearGradient id="linear-gradient" x1="309.62" y1="102.75" x2="309.62" y2="8.15" gradientUnits="userSpaceOnUse">
      <stop offset="0" stop-color="#1bb8d2"/>
      <stop offset="1" stop-color="#83d1da"/>
    </linearGradient>
    <filter id="drop-shadow-1" filterUnits="userSpaceOnUse">
      <feOffset dx="7" dy="7"/>
      <feGaussianBlur result="blur" stdDeviation="5"/>
      <feFlood flood-color="#000" flood-opacity=".75"/>
      <feComposite in2="blur" operator="in"/>
      <feComposite in="SourceGraphic"/>
    </filter>
  </defs>
  <g id="Layer_1-2" data-name="Layer 1">
    <g>
      <rect class="cls-1" x="8.48" y="8.15" width="602.28" height="94.6" rx="47.3" ry="47.3"/>
      <g>
        <path d="M144.56,84.33h-13.86c-1.13,0-1.95-.25-2.46-.76-.51-.51-.76-1.33-.76-2.46V23.17c0-1.13,.25-1.95,.76-2.46s1.33-.76,2.46-.76h39.88c1.13,0,1.95,.25,2.46,.76,.51,.51,.76,1.33,.76,2.46v10.64c0,1.13-.25,1.95-.76,2.46-.51,.51-1.33,.76-2.46,.76h-22.8v9.3h15.56c1.13,0,1.95,.25,2.46,.76,.51,.51,.76,1.33,.76,2.46v10.73c0,1.13-.25,1.95-.76,2.46-.51,.51-1.33,.76-2.46,.76h-15.56v17.62c0,1.13-.25,1.95-.76,2.46-.51,.51-1.33,.76-2.46,.76Z"/>
        <path d="M227.46,84.33h-41.49c-1.13,0-1.95-.25-2.46-.76-.51-.51-.76-1.33-.76-2.46V23.17c0-1.13,.25-1.95,.76-2.46s1.33-.76,2.46-.76h41.49c1.13,0,1.95,.25,2.46,.76,.51,.51,.76,1.33,.76,2.46v10.46c0,1.13-.25,1.95-.76,2.46s-1.33,.76-2.46,.76h-24.68v6.89h17.44c1.13,0,1.95,.25,2.46,.76,.51,.51,.76,1.33,.76,2.46v9.57c0,1.13-.25,1.95-.76,2.46-.51,.51-1.33,.76-2.46,.76h-17.44v7.69h24.68c1.13,0,1.95,.25,2.46,.76,.51,.51,.76,1.33,.76,2.46v10.46c0,1.13-.25,1.95-.76,2.46s-1.33,.76-2.46,.76Z"/>
        <path d="M257.77,84.33h-13.32c-1.13,0-1.95-.25-2.46-.76-.51-.51-.76-1.33-.76-2.46V23.17c0-1.13,.25-1.95,.76-2.46s1.33-.76,2.46-.76h14.4c.95,0,1.74,.21,2.37,.63,.63,.42,1.21,1.1,1.74,2.06l8.05,14.58c.3,.54,.55,.93,.76,1.16,.21,.24,.49,.36,.85,.36h.8c.36,0,.64-.12,.85-.36,.21-.24,.46-.63,.76-1.16l7.96-14.58c.54-.95,1.12-1.64,1.74-2.06,.63-.42,1.42-.63,2.37-.63h14.49c1.13,0,1.95,.25,2.46,.76,.51,.51,.76,1.33,.76,2.46v57.95c0,1.13-.25,1.95-.76,2.46-.51,.51-1.33,.76-2.46,.76h-13.77c-1.13,0-1.95-.25-2.46-.76-.51-.51-.76-1.33-.76-2.46v-31.48l-5.28,9.75c-.54,1.01-1.18,1.74-1.92,2.19-.75,.45-1.69,.67-2.82,.67h-3.58c-1.13,0-2.07-.22-2.82-.67-.75-.45-1.39-1.18-1.92-2.19l-5.28-9.75v31.48c0,1.13-.25,1.95-.76,2.46-.51,.51-1.33,.76-2.46,.76Z"/>
        <path d="M335.4,81.11c0,1.13-.25,1.95-.76,2.46s-1.33,.76-2.46,.76h-13.15c-1.13,0-1.95-.25-2.46-.76-.51-.51-.76-1.33-.76-2.46v-23.61c0-1.79,.28-3.85,.85-6.17,.57-2.33,1.44-5.04,2.64-8.14l7.78-20.3c.36-1.01,.91-1.76,1.65-2.24,.74-.48,1.71-.72,2.91-.72h24.05c1.13,0,2.07,.24,2.82,.72,.74,.48,1.3,1.22,1.65,2.24l7.78,20.3c1.19,3.1,2.07,5.81,2.64,8.14,.57,2.32,.85,4.38,.85,6.17v23.61c0,1.13-.25,1.95-.76,2.46s-1.33,.76-2.46,.76h-13.5c-1.19,0-2.07-.25-2.64-.76-.57-.51-.85-1.33-.85-2.46v-12.52h-15.83v12.52Zm5.1-42.39l-4.2,13.59h14.04l-4.2-13.59c-.24-.54-.49-.92-.76-1.16s-.58-.36-.94-.36h-2.24c-.36,0-.67,.12-.94,.36-.27,.24-.52,.63-.76,1.16Z"/>
        <path d="M431.17,84.33h-45.52c-1.13,0-1.95-.25-2.46-.76-.51-.51-.76-1.33-.76-2.46V23.17c0-1.13,.25-1.95,.76-2.46,.51-.51,1.33-.76,2.46-.76h13.86c1.13,0,1.95,.25,2.46,.76,.51,.51,.76,1.33,.76,2.46v44.26h12.25v-14.49c0-1.13,.25-1.95,.76-2.46s1.33-.76,2.46-.76h12.97c1.13,0,1.95,.25,2.46,.76,.51,.51,.76,1.33,.76,2.46v28.17c0,1.13-.25,1.95-.76,2.46s-1.33,.76-2.46,.76Z"/>
        <path d="M489.29,84.33h-41.49c-1.13,0-1.95-.25-2.46-.76-.51-.51-.76-1.33-.76-2.46V23.17c0-1.13,.25-1.95,.76-2.46,.51-.51,1.33-.76,2.46-.76h41.49c1.13,0,1.95,.25,2.46,.76,.51,.51,.76,1.33,.76,2.46v10.46c0,1.13-.25,1.95-.76,2.46-.51,.51-1.33,.76-2.46,.76h-24.68v6.89h17.44c1.13,0,1.95,.25,2.46,.76,.5,.51,.76,1.33,.76,2.46v9.57c0,1.13-.25,1.95-.76,2.46-.51,.51-1.33,.76-2.46,.76h-17.44v7.69h24.68c1.13,0,1.95,.25,2.46,.76,.51,.51,.76,1.33,.76,2.46v10.46c0,1.13-.25,1.95-.76,2.46-.51,.51-1.33,.76-2.46,.76Z"/>
      </g>
    </g>
  </g>
</svg>