<?xml version="1.0" encoding="UTF-8"?>
<svg id="Layer_2" data-name="Layer 2" xmlns="http://www.w3.org/2000/svg" viewBox="0 0 572.09 264.23">
  <g id="Layer_1-2" data-name="Layer 1">
    <g>
      <path d="M70.6,99.09H27.11c-1.74,0-3.01-.39-3.78-1.17-.78-.78-1.17-2.04-1.17-3.78v-16.1c0-1.74,.39-3,1.17-3.78,.78-.78,2.04-1.17,3.78-1.17h37.02c1.19,0,2.09-.39,2.68-1.17,.6-.78,.89-1.72,.89-2.82,0-1.56-.3-2.71-.89-3.44-.6-.73-1.49-1.15-2.68-1.24l-20.64-2.89c-6.42-.92-11.58-3.03-15.48-6.33-3.9-3.3-5.85-8.81-5.85-16.51v-14.45c0-7.8,2.52-13.78,7.57-17.96C34.77,2.09,41.74,0,50.64,0h38.53c1.74,0,3,.39,3.78,1.17,.78,.78,1.17,2.04,1.17,3.78V21.33c0,1.74-.39,3.01-1.17,3.78-.78,.78-2.04,1.17-3.78,1.17H57.11c-1.19,0-2.11,.39-2.75,1.17-.64,.78-.96,1.77-.96,2.96s.32,2.2,.96,3.03c.64,.83,1.56,1.29,2.75,1.38l20.51,2.75c6.42,.92,11.61,3.03,15.55,6.33,3.94,3.3,5.92,8.81,5.92,16.51v14.45c0,7.8-2.55,13.79-7.64,17.96-5.09,4.18-12.04,6.26-20.85,6.26Z"/>
      <path d="M182.9,99.09h-63.86c-1.74,0-3.01-.39-3.78-1.17-.78-.78-1.17-2.04-1.17-3.78V4.95c0-1.74,.39-3,1.17-3.78,.78-.78,2.04-1.17,3.78-1.17h63.86c1.74,0,3,.39,3.78,1.17,.78,.78,1.17,2.04,1.17,3.78V21.06c0,1.74-.39,3.01-1.17,3.78-.78,.78-2.04,1.17-3.78,1.17h-37.98v10.6h26.84c1.74,0,3,.39,3.78,1.17,.78,.78,1.17,2.04,1.17,3.78v14.73c0,1.74-.39,3.01-1.17,3.78-.78,.78-2.04,1.17-3.78,1.17h-26.84v11.84h37.98c1.74,0,3,.39,3.78,1.17,.78,.78,1.17,2.04,1.17,3.78v16.1c0,1.74-.39,3.01-1.17,3.78s-2.04,1.17-3.78,1.17Z"/>
      <path d="M279.09,99.09h-70.05c-1.74,0-3.01-.39-3.78-1.17-.78-.78-1.17-2.04-1.17-3.78V4.95c0-1.74,.39-3,1.17-3.78,.78-.78,2.04-1.17,3.78-1.17h21.33c1.74,0,3,.39,3.78,1.17,.78,.78,1.17,2.04,1.17,3.78V73.08h18.85v-22.29c0-1.74,.39-3,1.17-3.78s2.04-1.17,3.78-1.17h19.95c1.74,0,3,.39,3.78,1.17,.78,.78,1.17,2.04,1.17,3.78v43.35c0,1.74-.39,3.01-1.17,3.78s-2.04,1.17-3.78,1.17Z"/>
      <path d="M368.55,99.09h-63.86c-1.74,0-3.01-.39-3.78-1.17-.78-.78-1.17-2.04-1.17-3.78V4.95c0-1.74,.39-3,1.17-3.78,.78-.78,2.04-1.17,3.78-1.17h63.86c1.74,0,3,.39,3.78,1.17,.78,.78,1.17,2.04,1.17,3.78V21.06c0,1.74-.39,3.01-1.17,3.78-.78,.78-2.04,1.17-3.78,1.17h-37.98v10.6h26.84c1.74,0,3,.39,3.78,1.17,.78,.78,1.17,2.04,1.17,3.78v14.73c0,1.74-.39,3.01-1.17,3.78-.78,.78-2.04,1.17-3.78,1.17h-26.84v11.84h37.98c1.74,0,3,.39,3.78,1.17,.78,.78,1.17,2.04,1.17,3.78v16.1c0,1.74-.39,3.01-1.17,3.78s-2.04,1.17-3.78,1.17Z"/>
      <path d="M454.97,99.09h-33.58c-11.47,0-19.98-2.29-25.53-6.88-5.55-4.59-8.33-11.65-8.33-21.19V28.21c0-9.54,2.77-16.63,8.33-21.26,5.55-4.63,14.06-6.95,25.53-6.95h33.58c1.74,0,3,.39,3.78,1.17,.78,.78,1.17,2.04,1.17,3.78V21.61c0,1.74-.39,3.01-1.17,3.78-.78,.78-2.04,1.17-3.78,1.17h-27.66c-2.84,0-4.95,.57-6.33,1.72-1.38,1.15-2.06,2.87-2.06,5.16v32.75c0,2.29,.69,3.97,2.06,5.02,1.38,1.06,3.49,1.58,6.33,1.58h27.66c1.74,0,3,.39,3.78,1.17,.78,.78,1.17,2.04,1.17,3.78v16.38c0,1.74-.39,3.01-1.17,3.78s-2.04,1.17-3.78,1.17Z"/>
      <path d="M522.27,99.09h-22.29c-1.74,0-3.01-.39-3.78-1.17-.78-.78-1.17-2.04-1.17-3.78V26.56h-20.23c-1.74,0-3.01-.39-3.78-1.17-.78-.78-1.17-2.04-1.17-3.78V4.95c0-1.74,.39-3,1.17-3.78,.78-.78,2.04-1.17,3.78-1.17h72.66c1.74,0,3,.39,3.78,1.17,.78,.78,1.17,2.04,1.17,3.78V21.61c0,1.74-.39,3.01-1.17,3.78-.78,.78-2.04,1.17-3.78,1.17h-20.23V94.13c0,1.74-.39,3.01-1.17,3.78s-2.04,1.17-3.78,1.17Z"/>
      <path d="M77.21,264.23H33.85c-11.47,0-19.98-2.29-25.53-6.88-5.55-4.59-8.33-11.65-8.33-21.19v-42.94c0-9.54,2.77-16.61,8.33-21.19,5.55-4.59,14.06-6.88,25.53-6.88h34.41c1.74,0,3,.39,3.78,1.17,.78,.78,1.17,2.04,1.17,3.79v16.65c0,1.74-.39,3.01-1.17,3.79-.78,.78-2.04,1.17-3.78,1.17h-28.62c-2.85,0-4.95,.57-6.33,1.72-1.38,1.15-2.06,2.87-2.06,5.16v32.89c0,2.29,.53,3.99,1.58,5.09,1.05,1.1,2.64,1.65,4.75,1.65h13.35v-21.47c0-1.74,.39-3,1.17-3.79,.78-.78,2.04-1.17,3.78-1.17h21.33c1.74,0,3,.39,3.78,1.17,.78,.78,1.17,2.04,1.17,3.79v42.52c0,1.74-.39,3.01-1.17,3.78-.78,.78-2.04,1.17-3.78,1.17Z"/>
      <path d="M167.76,264.23h-63.86c-1.74,0-3.01-.39-3.78-1.17-.78-.78-1.17-2.04-1.17-3.78v-89.18c0-1.74,.39-3,1.17-3.79,.78-.78,2.04-1.17,3.78-1.17h63.86c1.74,0,3,.39,3.78,1.17,.78,.78,1.17,2.04,1.17,3.79v16.1c0,1.74-.39,3.01-1.17,3.78s-2.04,1.17-3.78,1.17h-37.98v10.6h26.84c1.74,0,3,.39,3.78,1.17,.78,.78,1.17,2.04,1.17,3.78v14.73c0,1.74-.39,3.01-1.17,3.78-.78,.78-2.04,1.17-3.78,1.17h-26.84v11.84h37.98c1.74,0,3,.39,3.78,1.17,.78,.78,1.17,2.04,1.17,3.79v16.1c0,1.74-.39,3.01-1.17,3.78s-2.04,1.17-3.78,1.17Z"/>
      <path d="M214.55,264.23h-20.64c-1.74,0-3.01-.39-3.78-1.17-.78-.78-1.17-2.04-1.17-3.78v-89.18c0-1.74,.39-3,1.17-3.79,.78-.78,2.04-1.17,3.78-1.17h14.31c1.74,0,3.23,.28,4.47,.83,1.24,.55,2.45,1.51,3.65,2.89l26.7,30.55v-29.31c0-1.74,.39-3,1.17-3.79,.78-.78,2.04-1.17,3.78-1.17h20.64c1.74,0,3,.39,3.78,1.17,.78,.78,1.17,2.04,1.17,3.79v89.18c0,1.74-.39,3.01-1.17,3.78-.78,.78-2.04,1.17-3.78,1.17h-20.64c-1.74,0-3.01-.39-3.78-1.17-.78-.78-1.17-2.04-1.17-3.78v-16.93l-23.53-28.49v45.42c0,1.74-.39,3.01-1.17,3.78-.78,.78-2.04,1.17-3.78,1.17Z"/>
      <path d="M343.91,264.23h-46.38c-1.74,0-3.01-.39-3.78-1.17-.78-.78-1.17-2.04-1.17-3.78v-89.18c0-1.74,.39-3,1.17-3.79,.78-.78,2.04-1.17,3.78-1.17h46.38c11.47,0,19.98,2.29,25.53,6.88,5.55,4.59,8.33,11.65,8.33,21.19v42.94c0,9.54-2.78,16.61-8.33,21.19-5.55,4.59-14.06,6.88-25.53,6.88Zm-20.09-72.8v46.79h16.38c2.2,0,3.83-.55,4.89-1.65,1.05-1.1,1.58-2.8,1.58-5.09v-33.44c0-2.29-.53-3.97-1.58-5.02-1.06-1.05-2.68-1.58-4.89-1.58h-16.38Z"/>
      <path d="M464.05,264.23h-63.86c-1.74,0-3.01-.39-3.78-1.17-.78-.78-1.17-2.04-1.17-3.78v-89.18c0-1.74,.39-3,1.17-3.79s2.04-1.17,3.78-1.17h63.86c1.74,0,3,.39,3.79,1.17,.78,.78,1.17,2.04,1.17,3.79v16.1c0,1.74-.39,3.01-1.17,3.78s-2.04,1.17-3.79,1.17h-37.98v10.6h26.84c1.74,0,3,.39,3.78,1.17,.78,.78,1.17,2.04,1.17,3.78v14.73c0,1.74-.39,3.01-1.17,3.78-.78,.78-2.04,1.17-3.78,1.17h-26.84v11.84h37.98c1.74,0,3,.39,3.79,1.17,.78,.78,1.17,2.04,1.17,3.79v16.1c0,1.74-.39,3.01-1.17,3.78s-2.04,1.17-3.79,1.17Z"/>
      <path d="M511.4,264.23h-21.19c-1.74,0-3.01-.39-3.78-1.17-.78-.78-1.17-2.04-1.17-3.78v-89.18c0-1.74,.39-3,1.17-3.79s2.04-1.17,3.78-1.17h45.83c10.27,0,17.36,2.13,21.26,6.4,3.9,4.27,5.85,9.79,5.85,16.58v6.33c0,3.85-.57,7.13-1.72,9.84-1.15,2.71-3.14,4.66-5.99,5.85,4.95,.55,8.97,2.57,12.04,6.06,3.07,3.49,4.61,8.12,4.61,13.9v29.18c0,1.74-.39,3.01-1.17,3.78-.78,.78-2.04,1.17-3.78,1.17h-21.33c-1.74,0-3.01-.39-3.78-1.17-.78-.78-1.17-2.04-1.17-3.78v-21.06c0-2.02-.39-3.51-1.17-4.47-.78-.96-2.13-1.45-4.06-1.45h-19.27v26.97c0,1.74-.39,3.01-1.17,3.78-.78,.78-2.04,1.17-3.79,1.17Zm4.96-74.31v17.62h10.32c2.38,0,3.99-.62,4.82-1.86,.83-1.24,1.24-2.77,1.24-4.61v-4.68c0-1.83-.41-3.37-1.24-4.61-.83-1.24-2.43-1.86-4.82-1.86h-10.32Z"/>
    </g>
  </g>
</svg>