<?xml version="1.0" encoding="UTF-8"?>
<svg id="Layer_2" data-name="Layer 2" xmlns="http://www.w3.org/2000/svg" xmlns:xlink="http://www.w3.org/1999/xlink" viewBox="0 0 633 125">
  <defs>
    <style>
      .cls-1 {
        fill: url(#linear-gradient);
        filter: url(#drop-shadow-1);
      }
    </style>
    <linearGradient id="linear-gradient" x1="309.8" y1="102.67" x2="309.8" y2="8.07" gradientUnits="userSpaceOnUse">
      <stop offset="0" stop-color="#1bb8d2"/>
      <stop offset="1" stop-color="#83d1da"/>
    </linearGradient>
    <filter id="drop-shadow-1" filterUnits="userSpaceOnUse">
      <feOffset dx="7" dy="7"/>
      <feGaussianBlur result="blur" stdDeviation="5"/>
      <feFlood flood-color="#000" flood-opacity=".75"/>
      <feComposite in2="blur" operator="in"/>
      <feComposite in="SourceGraphic"/>
    </filter>
  </defs>
  <g id="Layer_1-2" data-name="Layer 1">
    <g>
      <rect class="cls-1" x="8.66" y="8.07" width="602.28" height="94.6" rx="47.3" ry="47.3"/>
      <g>
        <path d="M222.82,81.85h-33.85c-.92,0-1.59-.21-2.01-.62-.41-.41-.62-1.08-.62-2.01V31.96c0-.92,.21-1.59,.62-2.01,.41-.41,1.08-.62,2.01-.62h33.85c.92,0,1.59,.21,2.01,.62,.41,.41,.62,1.08,.62,2.01v8.53c0,.92-.21,1.59-.62,2.01-.41,.41-1.08,.62-2.01,.62h-20.13v5.62h14.22c.92,0,1.59,.21,2.01,.62,.41,.41,.62,1.08,.62,2.01v7.8c0,.92-.21,1.59-.62,2.01-.41,.41-1.08,.62-2.01,.62h-14.22v6.27h20.13c.92,0,1.59,.21,2.01,.62,.41,.41,.62,1.08,.62,2.01v8.53c0,.92-.21,1.59-.62,2.01s-1.08,.62-2.01,.62Z"/>
        <path d="M247.54,81.85h-10.87c-.92,0-1.59-.21-2.01-.62-.41-.41-.62-1.08-.62-2.01V31.96c0-.92,.21-1.59,.62-2.01,.41-.41,1.08-.62,2.01-.62h11.74c.78,0,1.42,.17,1.93,.51,.51,.34,.98,.9,1.42,1.68l6.57,11.89c.24,.44,.45,.75,.62,.95,.17,.19,.4,.29,.69,.29h.66c.29,0,.52-.1,.69-.29,.17-.19,.38-.51,.62-.95l6.49-11.89c.44-.78,.91-1.34,1.42-1.68,.51-.34,1.15-.51,1.93-.51h11.82c.92,0,1.59,.21,2.01,.62,.41,.41,.62,1.08,.62,2.01v47.27c0,.92-.21,1.59-.62,2.01s-1.08,.62-2.01,.62h-11.23c-.92,0-1.59-.21-2.01-.62-.41-.41-.62-1.08-.62-2.01v-25.68l-4.3,7.95c-.44,.83-.96,1.42-1.57,1.79-.61,.36-1.37,.55-2.3,.55h-2.92c-.92,0-1.69-.18-2.3-.55-.61-.37-1.13-.96-1.57-1.79l-4.3-7.95v25.68c0,.92-.21,1.59-.62,2.01-.41,.41-1.08,.62-2.01,.62Z"/>
        <path d="M310.86,79.22c0,.92-.21,1.59-.62,2.01-.41,.41-1.08,.62-2.01,.62h-10.72c-.92,0-1.59-.21-2.01-.62-.41-.41-.62-1.08-.62-2.01v-19.26c0-1.46,.23-3.14,.69-5.03,.46-1.9,1.18-4.11,2.15-6.64l6.35-16.56c.29-.83,.74-1.43,1.35-1.82,.61-.39,1.4-.58,2.37-.58h19.62c.92,0,1.69,.19,2.3,.58,.61,.39,1.06,1,1.35,1.82l6.35,16.56c.97,2.53,1.69,4.74,2.15,6.64,.46,1.9,.69,3.57,.69,5.03v19.26c0,.92-.21,1.59-.62,2.01s-1.08,.62-2.01,.62h-11.01c-.97,0-1.69-.21-2.15-.62-.46-.41-.69-1.08-.69-2.01v-10.21h-12.91v10.21Zm4.16-34.58l-3.43,11.09h11.45l-3.43-11.09c-.2-.44-.4-.75-.62-.95-.22-.19-.47-.29-.77-.29h-1.82c-.29,0-.55,.1-.77,.29-.22,.2-.43,.51-.62,.95Z"/>
        <path d="M350.69,81.85c-.92,0-1.59-.21-2.01-.62-.41-.41-.62-1.08-.62-2.01v-8.68c0-.92,.21-1.59,.62-2.01s1.08-.62,2.01-.62h7.22v-24.51h-7.22c-.92,0-1.59-.21-2.01-.62-.41-.41-.62-1.08-.62-2.01v-8.83c0-.92,.21-1.59,.62-2.01,.41-.41,1.08-.62,2.01-.62h31.07c.92,0,1.59,.21,2.01,.62s.62,1.08,.62,2.01v8.83c0,.92-.21,1.59-.62,2.01s-1.08,.62-2.01,.62h-7.08v24.51h7.08c.92,0,1.59,.21,2.01,.62,.41,.41,.62,1.08,.62,2.01v8.68c0,.92-.21,1.59-.62,2.01-.41,.41-1.08,.62-2.01,.62h-31.07Z"/>
        <path d="M433.11,81.85h-37.13c-.92,0-1.59-.21-2.01-.62-.41-.41-.62-1.08-.62-2.01V31.96c0-.92,.21-1.59,.62-2.01,.41-.41,1.08-.62,2.01-.62h11.31c.92,0,1.59,.21,2.01,.62s.62,1.08,.62,2.01v36.11h9.99v-11.82c0-.92,.21-1.59,.62-2.01s1.08-.62,2.01-.62h10.58c.92,0,1.59,.21,2.01,.62,.41,.41,.62,1.08,.62,2.01v22.98c0,.92-.21,1.59-.62,2.01s-1.08,.62-2.01,.62Z"/>
      </g>
    </g>
  </g>
</svg>