<?xml version="1.0" encoding="UTF-8"?>
<svg id="Layer_2" data-name="Layer 2" xmlns="http://www.w3.org/2000/svg" xmlns:xlink="http://www.w3.org/1999/xlink" viewBox="0 0 633 125">
  <defs>
    <style>
      .cls-1 {
        fill: url(#linear-gradient);
        filter: url(#drop-shadow-1);
      }
    </style>
    <linearGradient id="linear-gradient" x1="309.17" y1="102.77" x2="309.17" y2="8.17" gradientUnits="userSpaceOnUse">
      <stop offset="0" stop-color="#1bb8d2"/>
      <stop offset="1" stop-color="#83d1da"/>
    </linearGradient>
    <filter id="drop-shadow-1" filterUnits="userSpaceOnUse">
      <feOffset dx="7" dy="7"/>
      <feGaussianBlur result="blur" stdDeviation="5"/>
      <feFlood flood-color="#000" flood-opacity=".75"/>
      <feComposite in2="blur" operator="in"/>
      <feComposite in="SourceGraphic"/>
    </filter>
  </defs>
  <g id="Layer_1-2" data-name="Layer 1">
    <g>
      <rect class="cls-1" x="8.03" y="8.17" width="602.28" height="94.6" rx="47.3" ry="47.3"/>
      <g>
        <path d="M91.11,81.95h-22.98c-6.08,0-10.59-1.21-13.53-3.65-2.94-2.43-4.41-6.17-4.41-11.23v-22.76c0-5.06,1.47-8.8,4.41-11.23,2.94-2.43,7.45-3.65,13.53-3.65h18.24c.92,0,1.59,.21,2.01,.62s.62,1.08,.62,2.01v8.83c0,.92-.21,1.59-.62,2.01s-1.08,.62-2.01,.62h-15.17c-1.51,0-2.63,.3-3.36,.91-.73,.61-1.09,1.52-1.09,2.74v17.43c0,1.22,.28,2.12,.84,2.7,.56,.58,1.4,.88,2.52,.88h7.08v-11.38c0-.92,.21-1.59,.62-2.01,.41-.41,1.08-.62,2.01-.62h11.31c.92,0,1.59,.21,2.01,.62s.62,1.08,.62,2.01v22.54c0,.92-.21,1.59-.62,2.01-.41,.41-1.08,.62-2.01,.62Z"/>
        <path d="M139.1,81.95h-33.85c-.92,0-1.59-.21-2.01-.62-.41-.41-.62-1.08-.62-2.01V32.06c0-.92,.21-1.59,.62-2.01,.41-.41,1.08-.62,2.01-.62h33.85c.92,0,1.59,.21,2.01,.62,.41,.41,.62,1.08,.62,2.01v8.53c0,.92-.21,1.59-.62,2.01-.41,.41-1.08,.62-2.01,.62h-20.13v5.62h14.22c.92,0,1.59,.21,2.01,.62,.41,.41,.62,1.08,.62,2.01v7.8c0,.92-.21,1.59-.62,2.01-.41,.41-1.08,.62-2.01,.62h-14.22v6.27h20.13c.92,0,1.59,.21,2.01,.62,.41,.41,.62,1.08,.62,2.01v8.53c0,.92-.21,1.59-.62,2.01s-1.08,.62-2.01,.62Z"/>
        <path d="M163.9,81.95h-10.94c-.92,0-1.59-.21-2.01-.62-.41-.41-.62-1.08-.62-2.01V32.06c0-.92,.21-1.59,.62-2.01,.41-.41,1.08-.62,2.01-.62h7.59c.92,0,1.71,.15,2.37,.44,.66,.29,1.3,.8,1.93,1.53l14.15,16.19v-15.54c0-.92,.21-1.59,.62-2.01s1.08-.62,2.01-.62h10.94c.92,0,1.59,.21,2.01,.62s.62,1.08,.62,2.01v47.27c0,.92-.21,1.59-.62,2.01-.41,.41-1.08,.62-2.01,.62h-10.94c-.92,0-1.59-.21-2.01-.62-.41-.41-.62-1.08-.62-2.01v-8.97l-12.47-15.1v24.07c0,.92-.21,1.59-.62,2.01s-1.08,.62-2.01,.62Z"/>
        <path d="M241.74,81.95h-33.85c-.92,0-1.59-.21-2.01-.62-.41-.41-.62-1.08-.62-2.01V32.06c0-.92,.21-1.59,.62-2.01,.41-.41,1.08-.62,2.01-.62h33.85c.92,0,1.59,.21,2.01,.62,.41,.41,.62,1.08,.62,2.01v8.53c0,.92-.21,1.59-.62,2.01-.41,.41-1.08,.62-2.01,.62h-20.13v5.62h14.22c.92,0,1.59,.21,2.01,.62,.41,.41,.62,1.08,.62,2.01v7.8c0,.92-.21,1.59-.62,2.01-.41,.41-1.08,.62-2.01,.62h-14.22v6.27h20.13c.92,0,1.59,.21,2.01,.62,.41,.41,.62,1.08,.62,2.01v8.53c0,.92-.21,1.59-.62,2.01s-1.08,.62-2.01,.62Z"/>
        <path d="M266.83,81.95h-11.23c-.92,0-1.59-.21-2.01-.62-.41-.41-.62-1.08-.62-2.01V32.06c0-.92,.21-1.59,.62-2.01,.41-.41,1.08-.62,2.01-.62h24.29c5.45,0,9.2,1.13,11.27,3.39,2.07,2.26,3.1,5.19,3.1,8.79v3.35c0,2.04-.3,3.78-.91,5.22-.61,1.43-1.67,2.47-3.17,3.1,2.62,.29,4.75,1.36,6.38,3.21,1.63,1.85,2.44,4.3,2.44,7.37v15.46c0,.92-.21,1.59-.62,2.01s-1.08,.62-2.01,.62h-11.31c-.92,0-1.59-.21-2.01-.62-.41-.41-.62-1.08-.62-2.01v-11.16c0-1.07-.21-1.86-.62-2.37-.41-.51-1.13-.77-2.15-.77h-10.21v14.3c0,.92-.21,1.59-.62,2.01s-1.08,.62-2.01,.62Zm2.63-39.39v9.34h5.47c1.26,0,2.12-.33,2.55-.98s.66-1.47,.66-2.44v-2.48c0-.97-.22-1.79-.66-2.44s-1.29-.98-2.55-.98h-5.47Z"/>
        <path d="M322.04,79.33c0,.92-.21,1.59-.62,2.01-.41,.41-1.08,.62-2.01,.62h-10.72c-.92,0-1.59-.21-2.01-.62-.41-.41-.62-1.08-.62-2.01v-19.26c0-1.46,.23-3.14,.69-5.03,.46-1.9,1.18-4.11,2.15-6.64l6.35-16.56c.29-.83,.74-1.43,1.35-1.82,.61-.39,1.4-.58,2.37-.58h19.62c.92,0,1.69,.19,2.3,.58,.61,.39,1.06,1,1.35,1.82l6.35,16.56c.97,2.53,1.69,4.74,2.15,6.64,.46,1.9,.69,3.57,.69,5.03v19.26c0,.92-.21,1.59-.62,2.01s-1.08,.62-2.01,.62h-11.01c-.97,0-1.69-.21-2.15-.62-.46-.41-.69-1.08-.69-2.01v-10.21h-12.91v10.21Zm4.16-34.58l-3.43,11.09h11.45l-3.43-11.09c-.2-.44-.4-.75-.62-.95-.22-.19-.47-.29-.77-.29h-1.82c-.29,0-.55,.1-.77,.29-.22,.2-.43,.51-.62,.95Z"/>
        <path d="M382.3,81.95h-11.82c-.92,0-1.59-.21-2.01-.62-.41-.41-.62-1.08-.62-2.01V43.51h-10.72c-.92,0-1.59-.21-2.01-.62s-.62-1.08-.62-2.01v-8.83c0-.92,.21-1.59,.62-2.01s1.08-.62,2.01-.62h38.51c.92,0,1.59,.21,2.01,.62,.41,.41,.62,1.08,.62,2.01v8.83c0,.92-.21,1.59-.62,2.01-.41,.41-1.08,.62-2.01,.62h-10.72v35.81c0,.92-.21,1.59-.62,2.01s-1.08,.62-2.01,.62Z"/>
        <path d="M441.82,81.95h-33.85c-.92,0-1.59-.21-2.01-.62-.41-.41-.62-1.08-.62-2.01V32.06c0-.92,.21-1.59,.62-2.01,.41-.41,1.08-.62,2.01-.62h33.85c.92,0,1.59,.21,2.01,.62,.41,.41,.62,1.08,.62,2.01v8.53c0,.92-.21,1.59-.62,2.01-.41,.41-1.08,.62-2.01,.62h-20.13v5.62h14.22c.92,0,1.59,.21,2.01,.62,.41,.41,.62,1.08,.62,2.01v7.8c0,.92-.21,1.59-.62,2.01-.41,.41-1.08,.62-2.01,.62h-14.22v6.27h20.13c.92,0,1.59,.21,2.01,.62,.41,.41,.62,1.08,.62,2.01v8.53c0,.92-.21,1.59-.62,2.01s-1.08,.62-2.01,.62Z"/>
        <path d="M496.89,88.52h-11.23c-.92,0-1.59-.21-2.01-.62s-.62-1.08-.62-2.01v-4.01c-5.64-.83-9.45-2.52-11.42-5.07-1.97-2.55-2.95-5.65-2.95-9.3v-24.22c0-2.24,.33-4.27,.99-6.09,.66-1.82,1.82-3.39,3.5-4.71,1.68-1.31,4-2.33,6.97-3.06,2.97-.73,6.71-1.09,11.23-1.09s8.25,.37,11.2,1.09,5.25,1.75,6.93,3.06c1.68,1.31,2.84,2.88,3.5,4.71,.66,1.82,.99,3.85,.99,6.09v24.22c0,1.85-.22,3.56-.66,5.14-.44,1.58-1.19,2.98-2.26,4.19-1.07,1.22-2.54,2.26-4.41,3.14-1.87,.88-4.24,1.51-7.11,1.9v4.01c0,.92-.21,1.59-.62,2.01-.41,.41-1.08,.62-2.01,.62Zm-11.67-22.61c0,.97,.36,1.79,1.09,2.44,.73,.66,2.41,.98,5.03,.98s4.3-.33,5.03-.98c.73-.66,1.09-1.47,1.09-2.44v-19.91c0-.92-.36-1.71-1.09-2.37-.73-.66-2.41-.99-5.03-.99s-4.3,.33-5.03,.99c-.73,.66-1.09,1.45-1.09,2.37v19.91Z"/>
        <path d="M537.08,81.95h-11.23c-.92,0-1.59-.21-2.01-.62-.41-.41-.62-1.08-.62-2.01V32.06c0-.92,.21-1.59,.62-2.01,.41-.41,1.08-.62,2.01-.62h24.29c5.45,0,9.2,1.13,11.27,3.39,2.07,2.26,3.1,5.19,3.1,8.79v3.35c0,2.04-.3,3.78-.91,5.22-.61,1.43-1.67,2.47-3.17,3.1,2.62,.29,4.75,1.36,6.38,3.21,1.63,1.85,2.44,4.3,2.44,7.37v15.46c0,.92-.21,1.59-.62,2.01s-1.08,.62-2.01,.62h-11.31c-.92,0-1.59-.21-2.01-.62-.41-.41-.62-1.08-.62-2.01v-11.16c0-1.07-.21-1.86-.62-2.37-.41-.51-1.13-.77-2.15-.77h-10.21v14.3c0,.92-.21,1.59-.62,2.01s-1.08,.62-2.01,.62Zm2.63-39.39v9.34h5.47c1.26,0,2.12-.33,2.55-.98s.66-1.47,.66-2.44v-2.48c0-.97-.22-1.79-.66-2.44s-1.29-.98-2.55-.98h-5.47Z"/>
      </g>
    </g>
  </g>
</svg>