<?xml version="1.0" encoding="UTF-8"?>
<svg id="Layer_2" data-name="Layer 2" xmlns="http://www.w3.org/2000/svg" viewBox="0 0 717.8 95.02">
  <defs>
    <style>
      .cls-1 {
        fill: none;
        stroke: #f2f2f2;
        stroke-miterlimit: 10;
        stroke-width: 2px;
      }

      .cls-2 {
        fill: #f2f2f2;
      }
    </style>
  </defs>
  <g id="Layer_1-2" data-name="Layer 1">
    <g>
      <rect class="cls-1" x="1" y="1" width="715.8" height="93.02"/>
      <rect class="cls-2" x="9.59" y="9.93" width="11.56" height="75.15"/>
      <rect class="cls-2" x="30.36" y="9.93" width="11.56" height="75.15"/>
      <rect class="cls-2" x="51.14" y="9.93" width="11.56" height="75.15"/>
      <rect class="cls-2" x="71.91" y="9.93" width="11.56" height="75.15"/>
      <rect class="cls-2" x="92.68" y="9.93" width="11.56" height="75.15"/>
      <rect class="cls-2" x="113.46" y="9.93" width="11.56" height="75.15"/>
      <rect class="cls-2" x="134.23" y="9.93" width="11.56" height="75.15"/>
      <rect class="cls-2" x="155" y="9.93" width="11.56" height="75.15"/>
      <rect class="cls-2" x="175.78" y="9.93" width="11.56" height="75.15"/>
      <rect class="cls-2" x="196.55" y="9.93" width="11.56" height="75.15"/>
      <rect class="cls-2" x="217.32" y="9.93" width="11.56" height="75.15"/>
      <rect class="cls-2" x="238.09" y="9.93" width="11.56" height="75.15"/>
      <rect class="cls-2" x="258.87" y="9.93" width="11.56" height="75.15"/>
      <rect class="cls-2" x="279.64" y="9.93" width="11.56" height="75.15"/>
      <rect class="cls-2" x="300.41" y="9.93" width="11.56" height="75.15"/>
      <rect class="cls-2" x="321.19" y="9.93" width="11.56" height="75.15"/>
      <rect class="cls-2" x="341.96" y="9.93" width="11.56" height="75.15"/>
      <rect class="cls-2" x="362.73" y="9.93" width="11.56" height="75.15"/>
      <rect class="cls-2" x="383.51" y="9.93" width="11.56" height="75.15"/>
      <rect class="cls-2" x="404.28" y="9.93" width="11.56" height="75.15"/>
      <rect class="cls-2" x="425.05" y="9.93" width="11.56" height="75.15"/>
      <rect class="cls-2" x="445.83" y="9.93" width="11.56" height="75.15"/>
      <rect class="cls-2" x="466.6" y="9.93" width="11.56" height="75.15"/>
      <rect class="cls-2" x="487.37" y="9.93" width="11.56" height="75.15"/>
      <rect class="cls-2" x="508.14" y="9.93" width="11.56" height="75.15"/>
      <rect class="cls-2" x="528.92" y="9.93" width="11.56" height="75.15"/>
      <rect class="cls-2" x="549.69" y="9.93" width="11.56" height="75.15"/>
      <rect class="cls-2" x="570.46" y="9.93" width="11.56" height="75.15"/>
    </g>
  </g>
</svg>