<?xml version="1.0" encoding="UTF-8"?>
<svg id="Layer_2" data-name="Layer 2" xmlns="http://www.w3.org/2000/svg" xmlns:xlink="http://www.w3.org/1999/xlink" viewBox="0 0 633 125">
  <defs>
    <style>
      .cls-1 {
        fill: url(#linear-gradient);
        filter: url(#drop-shadow-1);
      }
    </style>
    <linearGradient id="linear-gradient" x1="309.17" y1="102.92" x2="309.17" y2="8.33" gradientUnits="userSpaceOnUse">
      <stop offset="0" stop-color="#1bb8d2"/>
      <stop offset="1" stop-color="#83d1da"/>
    </linearGradient>
    <filter id="drop-shadow-1" filterUnits="userSpaceOnUse">
      <feOffset dx="7" dy="7"/>
      <feGaussianBlur result="blur" stdDeviation="5"/>
      <feFlood flood-color="#000" flood-opacity=".75"/>
      <feComposite in2="blur" operator="in"/>
      <feComposite in="SourceGraphic"/>
    </filter>
  </defs>
  <g id="Layer_1-2" data-name="Layer 1">
    <g>
      <rect class="cls-1" x="8.03" y="8.33" width="602.28" height="94.6" rx="47.3" ry="47.3"/>
      <g>
        <path d="M199.65,78.48h-11.3c-.93,0-1.59-.21-2.01-.62-.41-.41-.62-1.08-.62-2.01V28.59c0-.92,.21-1.59,.62-2.01,.41-.41,1.08-.62,2.01-.62h22.32c6.61,0,11.13,1.31,13.57,3.94s3.65,6.05,3.65,10.29v9.34c0,4.23-1.22,7.66-3.65,10.28-2.43,2.63-6.96,3.94-13.57,3.94h-8.39v12.11c0,.92-.21,1.59-.62,2.01-.41,.41-1.08,.62-2.01,.62Zm2.48-38.88v11.01h6.56c1.41,0,2.33-.36,2.77-1.09,.44-.73,.66-1.56,.66-2.48v-3.87c0-.92-.22-1.75-.66-2.48-.44-.73-1.36-1.09-2.77-1.09h-6.56Z"/>
        <path d="M249.32,78.48h-11.23c-.92,0-1.59-.21-2.01-.62-.41-.41-.62-1.08-.62-2.01V28.59c0-.92,.21-1.59,.62-2.01,.41-.41,1.08-.62,2.01-.62h24.29c5.45,0,9.2,1.13,11.27,3.39,2.07,2.26,3.1,5.19,3.1,8.79v3.35c0,2.04-.3,3.78-.91,5.22-.61,1.43-1.67,2.47-3.17,3.1,2.62,.29,4.75,1.36,6.38,3.21,1.63,1.85,2.44,4.3,2.44,7.37v15.46c0,.92-.21,1.59-.62,2.01s-1.08,.62-2.01,.62h-11.31c-.92,0-1.59-.21-2.01-.62-.41-.41-.62-1.08-.62-2.01v-11.16c0-1.07-.21-1.86-.62-2.37-.41-.51-1.13-.77-2.15-.77h-10.21v14.3c0,.92-.21,1.59-.62,2.01s-1.08,.62-2.01,.62Zm2.62-39.39v9.34h5.47c1.26,0,2.12-.33,2.55-.98s.66-1.47,.66-2.44v-2.48c0-.97-.22-1.79-.66-2.44s-1.29-.98-2.55-.98h-5.47Z"/>
        <path d="M291.12,78.48c-.92,0-1.59-.21-2.01-.62-.41-.41-.62-1.08-.62-2.01v-8.68c0-.92,.21-1.59,.62-2.01s1.08-.62,2.01-.62h7.22v-24.51h-7.22c-.92,0-1.59-.21-2.01-.62-.41-.41-.62-1.08-.62-2.01v-8.83c0-.92,.21-1.59,.62-2.01,.41-.41,1.08-.62,2.01-.62h31.07c.92,0,1.59,.21,2.01,.62,.41,.41,.62,1.08,.62,2.01v8.83c0,.92-.21,1.59-.62,2.01-.41,.41-1.08,.62-2.01,.62h-7.08v24.51h7.08c.92,0,1.59,.21,2.01,.62,.41,.41,.62,1.08,.62,2.01v8.68c0,.92-.21,1.59-.62,2.01s-1.08,.62-2.01,.62h-31.07Z"/>
        <path d="M347.36,78.48h-10.94c-.93,0-1.59-.21-2.01-.62-.41-.41-.62-1.08-.62-2.01V28.59c0-.92,.21-1.59,.62-2.01,.41-.41,1.08-.62,2.01-.62h7.59c.92,0,1.71,.15,2.37,.44,.66,.29,1.3,.8,1.93,1.53l14.15,16.19v-15.54c0-.92,.21-1.59,.62-2.01,.41-.41,1.08-.62,2.01-.62h10.94c.92,0,1.59,.21,2.01,.62,.41,.41,.62,1.08,.62,2.01v47.27c0,.92-.21,1.59-.62,2.01s-1.08,.62-2.01,.62h-10.94c-.92,0-1.59-.21-2.01-.62-.41-.41-.62-1.08-.62-2.01v-8.97l-12.47-15.1v24.07c0,.92-.21,1.59-.62,2.01s-1.08,.62-2.01,.62Z"/>
        <path d="M413.51,78.48h-11.82c-.92,0-1.59-.21-2.01-.62-.41-.41-.62-1.08-.62-2.01V40.04h-10.72c-.92,0-1.59-.21-2.01-.62-.41-.41-.62-1.08-.62-2.01v-8.83c0-.92,.21-1.59,.62-2.01,.41-.41,1.08-.62,2.01-.62h38.52c.92,0,1.59,.21,2.01,.62,.41,.41,.62,1.08,.62,2.01v8.83c0,.92-.21,1.59-.62,2.01-.41,.41-1.08,.62-2.01,.62h-10.72v35.81c0,.92-.21,1.59-.62,2.01s-1.08,.62-2.01,.62Z"/>
      </g>
    </g>
  </g>
</svg>