<?xml version="1.0" encoding="UTF-8"?>
<svg id="Layer_2" data-name="Layer 2" xmlns="http://www.w3.org/2000/svg" viewBox="0 0 556.4 185.53">
  <g id="Layer_1-2" data-name="Layer 1">
    <g>
      <path d="M55.85,69.93h-14.65c-1.21,0-2.08-.27-2.62-.81-.54-.54-.81-1.41-.81-2.62V4.85c0-1.2,.27-2.08,.81-2.62s1.41-.81,2.62-.81h31.68c7.1,0,12,1.47,14.7,4.42,2.7,2.95,4.04,6.77,4.04,11.46v4.38c0,2.66-.4,4.93-1.19,6.8-.79,1.87-2.17,3.22-4.14,4.04,3.43,.38,6.2,1.78,8.33,4.19,2.12,2.41,3.19,5.61,3.19,9.61v20.17c0,1.21-.27,2.08-.81,2.62-.54,.54-1.41,.81-2.62,.81h-14.75c-1.21,0-2.08-.27-2.62-.81-.54-.54-.81-1.41-.81-2.62v-14.56c0-1.39-.27-2.43-.81-3.09-.54-.67-1.48-1-2.81-1h-13.32v18.65c0,1.21-.27,2.08-.81,2.62-.54,.54-1.41,.81-2.62,.81Zm3.43-51.38v12.18h7.13c1.65,0,2.76-.43,3.33-1.28,.57-.86,.86-1.92,.86-3.19v-3.24c0-1.27-.29-2.33-.86-3.19-.57-.86-1.68-1.28-3.33-1.28h-7.13Z"/>
      <path d="M156.04,69.93h-44.15c-1.21,0-2.08-.27-2.62-.81-.54-.54-.81-1.41-.81-2.62V4.85c0-1.2,.27-2.08,.81-2.62s1.41-.81,2.62-.81h44.15c1.21,0,2.08,.27,2.62,.81,.54,.54,.81,1.41,.81,2.62V15.98c0,1.21-.27,2.08-.81,2.62-.54,.54-1.41,.81-2.62,.81h-26.26v7.33h18.55c1.2,0,2.08,.27,2.62,.81,.54,.54,.81,1.41,.81,2.62v10.18c0,1.21-.27,2.08-.81,2.62-.54,.54-1.41,.81-2.62,.81h-18.55v8.18h26.26c1.21,0,2.08,.27,2.62,.81,.54,.54,.81,1.41,.81,2.62v11.13c0,1.21-.27,2.08-.81,2.62-.54,.54-1.41,.81-2.62,.81Z"/>
      <path d="M190.1,66.5c0,1.21-.27,2.08-.81,2.62-.54,.54-1.41,.81-2.62,.81h-13.99c-1.21,0-2.08-.27-2.62-.81-.54-.54-.81-1.41-.81-2.62v-25.12c0-1.9,.3-4.09,.9-6.57,.6-2.47,1.54-5.36,2.81-8.66l8.28-21.6c.38-1.08,.97-1.87,1.76-2.38,.79-.51,1.82-.76,3.09-.76h25.59c1.2,0,2.2,.25,3,.76,.79,.51,1.38,1.3,1.76,2.38l8.28,21.6c1.27,3.3,2.2,6.18,2.81,8.66,.6,2.47,.9,4.66,.9,6.57v25.12c0,1.21-.27,2.08-.81,2.62-.54,.54-1.41,.81-2.62,.81h-14.37c-1.27,0-2.21-.27-2.81-.81-.6-.54-.9-1.41-.9-2.62v-13.32h-16.84v13.32Zm5.42-45.1l-4.47,14.46h14.94l-4.47-14.46c-.25-.57-.52-.98-.81-1.24-.29-.25-.62-.38-1-.38h-2.38c-.38,0-.71,.13-1,.38-.29,.25-.56,.67-.81,1.24Z"/>
      <path d="M275.63,69.93h-32.06c-1.21,0-2.08-.27-2.62-.81-.54-.54-.81-1.41-.81-2.62V4.85c0-1.2,.27-2.08,.81-2.62,.54-.54,1.41-.81,2.62-.81h32.06c7.93,0,13.81,1.59,17.65,4.76,3.84,3.17,5.76,8.06,5.76,14.65v29.69c0,6.6-1.92,11.48-5.76,14.65-3.84,3.17-9.72,4.76-17.65,4.76Zm-13.89-50.33V51.95h11.32c1.52,0,2.65-.38,3.38-1.14,.73-.76,1.09-1.93,1.09-3.52V24.17c0-1.58-.37-2.74-1.09-3.47-.73-.73-1.86-1.09-3.38-1.09h-11.32Z"/>
      <path d="M345.85,69.93h-15.41c-1.21,0-2.08-.27-2.62-.81-.54-.54-.81-1.41-.81-2.62v-12.18l-14.56-19.5c-1.46-1.96-2.43-3.68-2.9-5.14-.48-1.46-.71-3.65-.71-6.56V4.85c0-1.2,.27-2.08,.81-2.62,.54-.54,1.41-.81,2.62-.81h14.65c1.2,0,2.08,.27,2.62,.81,.54,.54,.81,1.41,.81,2.62v15.6c0,.63,.03,1.3,.09,2,.06,.7,.32,1.36,.76,2l4.38,6.85c.32,.57,.65,.98,1,1.24,.35,.25,.78,.38,1.29,.38h.95c.51,0,.94-.13,1.29-.38,.35-.25,.68-.67,1-1.24l4.38-6.85c.44-.63,.7-1.3,.76-2,.06-.7,.09-1.36,.09-2V4.85c0-1.2,.27-2.08,.81-2.62,.54-.54,1.41-.81,2.62-.81h14.18c1.21,0,2.08,.27,2.62,.81,.54,.54,.81,1.41,.81,2.62V23.12c0,2.92-.25,5.11-.76,6.56-.51,1.46-1.46,3.17-2.85,5.14l-14.46,19.6v12.08c0,1.21-.27,2.08-.81,2.62-.54,.54-1.41,.81-2.62,.81Z"/>
      <path d="M431,69.93h-15.41c-1.21,0-2.08-.27-2.62-.81-.54-.54-.81-1.41-.81-2.62V19.79h-13.99c-1.21,0-2.08-.27-2.62-.81-.54-.54-.81-1.41-.81-2.62V4.85c0-1.2,.27-2.08,.81-2.62,.54-.54,1.41-.81,2.62-.81h50.24c1.2,0,2.08,.27,2.62,.81,.54,.54,.81,1.41,.81,2.62v11.51c0,1.21-.27,2.08-.81,2.62-.54,.54-1.41,.81-2.62,.81h-13.99v46.71c0,1.21-.27,2.08-.81,2.62-.54,.54-1.41,.81-2.62,.81Z"/>
      <path d="M518.63,51.95c0,2.92-.43,5.57-1.28,7.94-.86,2.38-2.38,4.41-4.57,6.09-2.19,1.68-5.2,3-9.04,3.95-3.84,.95-8.71,1.43-14.61,1.43s-10.78-.48-14.65-1.43c-3.87-.95-6.9-2.27-9.09-3.95s-3.71-3.71-4.57-6.09c-.86-2.38-1.29-5.03-1.29-7.94V19.5c0-2.92,.43-5.57,1.29-7.94,.86-2.38,2.38-4.42,4.57-6.14,2.19-1.71,5.22-3.04,9.09-4,3.87-.95,8.75-1.43,14.65-1.43s10.77,.48,14.61,1.43c3.84,.95,6.85,2.28,9.04,4,2.19,1.71,3.71,3.76,4.57,6.14,.86,2.38,1.28,5.03,1.28,7.94V51.95Zm-37.49-3.42c0,1.27,.48,2.33,1.43,3.19,.95,.86,3.14,1.29,6.56,1.29s5.61-.43,6.56-1.29c.95-.86,1.43-1.92,1.43-3.19V22.93c0-1.2-.48-2.24-1.43-3.09-.95-.86-3.14-1.28-6.56-1.28s-5.61,.43-6.56,1.28c-.95,.86-1.43,1.89-1.43,3.09v25.59Z"/>
      <path d="M35.49,184.1H3.43c-1.21,0-2.08-.27-2.62-.81-.54-.54-.81-1.41-.81-2.62v-61.65c0-1.2,.27-2.08,.81-2.62,.54-.54,1.41-.81,2.62-.81H35.49c7.93,0,13.81,1.59,17.65,4.76,3.84,3.17,5.76,8.06,5.76,14.65v29.68c0,6.6-1.92,11.48-5.76,14.65-3.84,3.17-9.72,4.76-17.65,4.76Zm-13.89-50.33v32.35h11.32c1.52,0,2.65-.38,3.38-1.14,.73-.76,1.09-1.93,1.09-3.52v-23.12c0-1.58-.37-2.74-1.09-3.47-.73-.73-1.86-1.09-3.38-1.09h-11.32Z"/>
      <path d="M129.01,166.12c0,2.92-.43,5.57-1.28,7.94-.86,2.38-2.38,4.41-4.57,6.09-2.19,1.68-5.2,3-9.04,3.95-3.84,.95-8.71,1.43-14.61,1.43s-10.78-.48-14.65-1.43c-3.87-.95-6.9-2.27-9.09-3.95-2.19-1.68-3.71-3.71-4.57-6.09-.86-2.38-1.28-5.03-1.28-7.94v-32.44c0-2.92,.43-5.57,1.28-7.94,.86-2.38,2.38-4.42,4.57-6.14,2.19-1.71,5.22-3.04,9.09-4,3.87-.95,8.75-1.43,14.65-1.43s10.77,.48,14.61,1.43c3.84,.95,6.85,2.28,9.04,4,2.19,1.71,3.71,3.76,4.57,6.14,.86,2.38,1.28,5.03,1.28,7.94v32.44Zm-37.49-3.43c0,1.27,.48,2.33,1.43,3.19s3.14,1.28,6.56,1.28,5.61-.43,6.57-1.28,1.43-1.92,1.43-3.19v-25.59c0-1.2-.47-2.24-1.43-3.09s-3.14-1.28-6.57-1.28-5.61,.43-6.56,1.28-1.43,1.89-1.43,3.09v25.59Z"/>
      <path d="M190.29,115.6h14.18c1.21,0,2.08,.27,2.62,.81,.54,.54,.81,1.41,.81,2.62v36.92c0,2.03-.08,3.92-.24,5.66-.16,1.75-.65,3.79-1.47,6.14l-4.76,12.94c-.32,.95-.78,1.76-1.38,2.43-.6,.67-1.41,1-2.43,1h-12.65c-1.02,0-1.94-.22-2.76-.67-.82-.44-1.36-1.17-1.62-2.19l-4.38-15.51c-.19-.63-.43-1.06-.71-1.28-.29-.22-.62-.33-1-.33h-.86c-.38,0-.71,.11-1,.33-.29,.22-.52,.65-.71,1.28l-4.47,15.51c-.25,.95-.73,1.67-1.43,2.14-.7,.48-1.55,.71-2.57,.71h-12.56c-1.02,0-1.89-.32-2.62-.95-.73-.63-1.25-1.46-1.57-2.47l-4.76-13.13c-.83-2.35-1.32-4.39-1.48-6.14-.16-1.74-.24-3.63-.24-5.66v-36.73c0-1.2,.27-2.08,.81-2.62s1.41-.81,2.62-.81h14.65c1.21,0,2.08,.27,2.62,.81,.54,.54,.81,1.41,.81,2.62v35.01l5.52-11.99c.51-1.08,1.17-1.84,2-2.28,.82-.44,1.84-.67,3.04-.67h4c1.2,0,2.22,.22,3.04,.67,.82,.44,1.49,1.21,2,2.28l5.52,11.99v-35.01c0-1.2,.27-2.08,.81-2.62,.54-.54,1.41-.81,2.62-.81Z"/>
      <path d="M237.86,184.1h-14.27c-1.21,0-2.08-.27-2.62-.81-.54-.54-.81-1.41-.81-2.62v-61.65c0-1.2,.27-2.08,.81-2.62,.54-.54,1.41-.81,2.62-.81h9.89c1.2,0,2.24,.19,3.09,.57,.86,.38,1.7,1.05,2.52,2l18.46,21.12v-20.27c0-1.2,.27-2.08,.81-2.62s1.41-.81,2.62-.81h14.27c1.21,0,2.08,.27,2.62,.81,.54,.54,.81,1.41,.81,2.62v61.65c0,1.21-.27,2.08-.81,2.62-.54,.54-1.41,.81-2.62,.81h-14.27c-1.21,0-2.08-.27-2.62-.81-.54-.54-.81-1.41-.81-2.62v-11.7l-16.27-19.69v31.4c0,1.21-.27,2.08-.81,2.62-.54,.54-1.41,.81-2.62,.81Z"/>
      <path d="M343.66,184.1h-48.43c-1.21,0-2.08-.27-2.62-.81-.54-.54-.81-1.41-.81-2.62v-61.65c0-1.2,.27-2.08,.81-2.62,.54-.54,1.41-.81,2.62-.81h14.75c1.2,0,2.08,.27,2.62,.81,.54,.54,.81,1.41,.81,2.62v47.1h13.04v-15.41c0-1.2,.27-2.08,.81-2.62,.54-.54,1.41-.81,2.62-.81h13.79c1.21,0,2.08,.27,2.62,.81,.54,.54,.81,1.41,.81,2.62v29.97c0,1.21-.27,2.08-.81,2.62-.54,.54-1.41,.81-2.62,.81Z"/>
      <path d="M415.97,166.12c0,2.92-.43,5.57-1.28,7.94-.86,2.38-2.38,4.41-4.57,6.09-2.19,1.68-5.2,3-9.04,3.95-3.84,.95-8.71,1.43-14.61,1.43s-10.78-.48-14.65-1.43c-3.87-.95-6.9-2.27-9.09-3.95-2.19-1.68-3.71-3.71-4.57-6.09-.86-2.38-1.29-5.03-1.29-7.94v-32.44c0-2.92,.43-5.57,1.29-7.94,.86-2.38,2.38-4.42,4.57-6.14,2.19-1.71,5.22-3.04,9.09-4s8.75-1.43,14.65-1.43,10.77,.48,14.61,1.43c3.84,.95,6.85,2.28,9.04,4,2.19,1.71,3.71,3.76,4.57,6.14,.86,2.38,1.28,5.03,1.28,7.94v32.44Zm-37.49-3.43c0,1.27,.48,2.33,1.43,3.19s3.14,1.28,6.56,1.28,5.61-.43,6.56-1.28,1.43-1.92,1.43-3.19v-25.59c0-1.2-.48-2.24-1.43-3.09s-3.14-1.28-6.56-1.28-5.61,.43-6.56,1.28-1.43,1.89-1.43,3.09v25.59Z"/>
      <path d="M447.46,180.68c0,1.21-.27,2.08-.81,2.62-.54,.54-1.41,.81-2.62,.81h-13.99c-1.21,0-2.08-.27-2.62-.81-.54-.54-.81-1.41-.81-2.62v-25.12c0-1.9,.3-4.09,.9-6.56,.6-2.47,1.54-5.36,2.81-8.66l8.28-21.6c.38-1.08,.97-1.87,1.76-2.38,.79-.51,1.82-.76,3.09-.76h25.59c1.21,0,2.21,.25,3,.76,.79,.51,1.38,1.3,1.76,2.38l8.28,21.6c1.27,3.3,2.2,6.18,2.81,8.66s.9,4.66,.9,6.56v25.12c0,1.21-.27,2.08-.81,2.62-.54,.54-1.41,.81-2.62,.81h-14.37c-1.27,0-2.21-.27-2.81-.81-.6-.54-.9-1.41-.9-2.62v-13.32h-16.84v13.32Zm5.42-45.1l-4.47,14.46h14.94l-4.47-14.46c-.25-.57-.52-.98-.81-1.24-.29-.25-.62-.38-1-.38h-2.38c-.38,0-.71,.13-1,.38-.29,.25-.55,.67-.81,1.24Z"/>
      <path d="M532.99,184.1h-32.06c-1.21,0-2.08-.27-2.62-.81-.54-.54-.81-1.41-.81-2.62v-61.65c0-1.2,.27-2.08,.81-2.62,.54-.54,1.41-.81,2.62-.81h32.06c7.93,0,13.81,1.59,17.65,4.76,3.84,3.17,5.76,8.06,5.76,14.65v29.68c0,6.6-1.92,11.48-5.76,14.65-3.84,3.17-9.72,4.76-17.65,4.76Zm-13.89-50.33v32.35h11.32c1.52,0,2.65-.38,3.38-1.14,.73-.76,1.09-1.93,1.09-3.52v-23.12c0-1.58-.37-2.74-1.09-3.47-.73-.73-1.86-1.09-3.38-1.09h-11.32Z"/>
    </g>
  </g>
</svg>